<svg viewBox="0 0 16 16" fill="none" xmlns="http://www.w3.org/2000/svg">
  <path d="M9.94384 5.24719C10.0168 5.39417 10.1572 5.496 10.3196 5.51967L14.3833 6.11222C14.4346 6.1197 14.4772 6.15561 14.4933 6.20489L14.9686 6.04995L14.4933 6.2049C14.5093 6.25418 14.496 6.30831 14.459 6.34458L11.5032 9.23932C11.3856 9.35454 11.3322 9.52029 11.3605 9.68251L12.0624 13.7038C12.0713 13.7551 12.0503 13.8071 12.0081 13.8377C11.9659 13.8682 11.9099 13.8721 11.8639 13.8476L8.23475 11.9132C8.08774 11.8349 7.91136 11.8349 7.76435 11.9133L4.136 13.8476C4.08998 13.8721 4.034 13.8682 3.99178 13.8376C3.94957 13.807 3.92852 13.755 3.93755 13.7036L4.64449 9.68312C4.67307 9.52057 4.61959 9.35438 4.50157 9.239L1.54104 6.34466C1.50394 6.3084 1.49064 6.25422 1.50671 6.2049C1.52279 6.15558 1.56546 6.11965 1.6168 6.1122L5.70255 5.51974C5.86597 5.49605 6.00715 5.39319 6.07981 5.2449L7.87708 1.57637C7.89993 1.52974 7.94727 1.50013 7.99919 1.5C8.05111 1.49987 8.0986 1.52923 8.12169 1.57574L9.94384 5.24719Z" stroke-linejoin="round"/>
</svg>
